<svg width="64" height="28" viewBox="0 0 64 28" fill="none" xmlns="http://www.w3.org/2000/svg">
<g clip-path="url(#clip0_1_878)">
<path d="M17.0786 9.25126C16.3271 8.74132 13.8999 8.45757 9.39072 8.08281C6.69853 7.85929 3.35266 7.5809 2.87158 7.22889C2.71665 7.06025 2.55357 6.60786 2.55357 5.83693C2.55357 4.49716 2.88381 3.56695 3.53477 3.07307C3.97917 2.72374 5.38845 2.13884 9.83919 2.13884C12.3914 2.13884 15.2127 2.36905 16.8775 2.59659C16.8829 2.59792 17.0256 2.61532 17.186 2.61532C17.4088 2.61532 17.5556 2.58186 17.6331 2.5136C17.7391 2.41991 17.7445 2.23387 17.7364 2.06389C17.7364 2.05318 17.735 2.04515 17.735 2.0398C17.735 1.61552 17.2662 0.874026 16.7198 0.61437C16.0254 0.257009 13.0886 3.05176e-05 9.73591 3.05176e-05C5.32322 3.05176e-05 2.88924 0.463127 1.59819 1.54726C0.553115 2.45873 0 4.07421 0 6.21838C0 7.47516 0.588449 8.657 1.15515 9.07057C1.80476 9.57784 4.22786 9.86292 8.76558 10.2404C11.5543 10.4732 14.7126 10.7356 15.2902 11.0796C15.562 11.3379 15.6992 11.8465 15.6992 12.5906C15.6992 13.8595 15.3649 14.8807 14.8023 15.3224L14.7846 15.3371C14.1608 15.8738 12.1699 16.1361 8.69899 16.1361C6.03398 16.1361 3.4111 15.9407 0.90102 15.5539L0.876558 15.5513C0.852096 15.5486 0.827634 15.5472 0.804531 15.5472C0.474293 15.5472 0.206569 15.8109 0.206569 16.1348C0.206569 16.5256 0.612911 17.223 1.03013 17.5469L1.05323 17.5629C1.70555 18.0126 4.83942 18.3258 8.67453 18.3258C13.1946 18.3258 15.706 17.8788 16.8177 16.875C17.8111 15.9608 18.3588 14.2771 18.3588 12.1329C18.3574 10.757 17.6956 9.67421 17.0786 9.25126Z" fill="#015BBB"/>
<path d="M63.3939 15.4709H63.3559L63.3178 15.4763C62.1599 15.6355 59.446 16.009 56.1517 16.009C51.7485 16.009 49.7046 15.6556 48.6119 14.7053C47.594 13.8005 47.0994 11.999 47.0994 9.20037C47.0994 6.51548 47.749 4.50917 48.9272 3.55353C50.1313 2.64875 52.5205 2.18967 56.0267 2.18967C59.2516 2.18967 61.5919 2.4868 63.1398 2.68355L63.2254 2.69426C63.2702 2.70497 63.3151 2.70898 63.3599 2.70898C63.6888 2.70898 63.947 2.44799 63.947 2.11472C63.947 1.68508 63.4741 0.993115 62.974 0.689291L62.9468 0.67323L62.9264 0.663861C62.1232 0.278393 59.1579 0 55.8759 0C51.5814 0 48.7356 0.6304 47.1755 1.92868C45.4849 3.35009 44.5906 5.92657 44.5906 9.37838C44.5906 12.77 45.2525 15.0292 46.6142 16.2847C48.1132 17.6606 50.7239 18.2227 55.6258 18.2227C59.1266 18.2227 62.1273 17.9363 62.9196 17.5267C63.4034 17.2885 64 16.464 64 16.0317C63.9987 15.7225 63.7269 15.4709 63.3939 15.4709Z" fill="#015BBB"/>
<path d="M31.4676 0C25.5872 0 20.8035 4.68183 20.8035 10.4357C20.8035 13.4124 22.1068 16.2539 24.3777 18.2334C24.5856 18.4168 24.8547 18.5172 25.136 18.5172C25.4622 18.5172 25.7748 18.3793 25.9922 18.1397C26.1933 17.9189 26.2953 17.6338 26.2776 17.338C26.2599 17.0396 26.124 16.7665 25.8957 16.5671C24.11 15.0118 23.0853 12.7767 23.0853 10.4344C23.0853 5.90917 26.8457 2.22849 31.4663 2.22849C36.0882 2.22849 39.8472 5.90917 39.8472 10.4344C39.8472 12.7753 38.8212 15.0105 37.0327 16.5698C36.8071 16.7665 36.6726 17.0396 36.6549 17.3354C36.6373 17.6325 36.7378 17.9176 36.939 18.1397C37.155 18.378 37.4663 18.5158 37.7924 18.5158C38.0737 18.5158 38.3428 18.4155 38.5521 18.2321C40.8257 16.2539 42.129 13.4111 42.129 10.4344C42.1317 4.68183 37.348 0 31.4676 0Z" fill="#015BBB"/>
<path d="M31.4674 10.682C30.8315 10.682 30.3152 11.192 30.3152 11.8184V25.6537C30.3152 26.2801 30.8315 26.7887 31.4674 26.7887C32.1033 26.7887 32.6196 26.2801 32.6196 25.6537V11.8184C32.6196 11.192 32.1033 10.682 31.4674 10.682Z" fill="#015BBB"/>
<mask id="path-5-outside-1_1_878" maskUnits="userSpaceOnUse" x="-1" y="20.6652" width="66" height="8" fill="black">
<rect fill="white" x="-1" y="20.6652" width="66" height="8"/>
<path d="M63.8094 27.5329C62.8703 27.5717 59.4755 27.5971 57.5797 27.5971C56.1038 27.5971 54.9391 27.5971 53.9701 27.5877C53.6739 27.5784 53.5135 27.5342 53.5135 27.3308V25.2094C53.5135 25.0099 53.5529 24.9698 53.9973 24.9698H61.5045C61.7709 24.9698 61.9802 24.9698 62.0902 24.9497C62.2112 24.9109 62.3634 24.757 62.3634 24.6927C62.3634 24.6539 62.305 24.599 62.1759 24.599H53.9824C53.5883 24.599 53.5135 24.5923 53.5135 24.3876V22.3023C53.5135 22.1015 53.5991 22.044 53.9131 22.0359C54.314 22.0279 54.8752 22.0239 55.6771 22.0239C56.025 22.0239 56.3742 22.0239 56.6963 22.0252C56.9736 22.0252 57.2318 22.0266 57.4519 22.0266C58.9088 22.0266 62.2941 22.0466 63.3813 22.0587L63.8406 22.064C63.9399 22.064 63.9996 22.0226 63.9996 21.9503C63.9847 21.878 63.804 21.7241 63.6912 21.7027C63.4452 21.6652 59.4021 21.6652 57.4098 21.6652C55.7518 21.6652 54.5545 21.6652 53.3844 21.6839C53.0881 21.6839 52.9115 21.791 52.9115 21.9704V27.5155C52.9115 27.8139 53.0569 27.9411 53.398 27.9411C54.6496 27.9598 55.9353 27.9692 57.5661 27.9692C59.6359 27.9692 63.4207 27.9505 63.668 27.9116C63.7876 27.8728 63.9684 27.7109 63.9847 27.6279L63.9861 27.6239L63.9833 27.6199C63.9698 27.5971 63.9371 27.5329 63.8094 27.5329Z"/>
<path d="M47.3438 21.6852C46.932 21.7923 42.2068 24.8466 42.2068 24.8466C42.2068 24.8466 37.4815 21.791 37.0697 21.6852C36.9352 21.6504 36.6715 21.633 36.6715 21.9181C36.6715 22.3786 36.6715 22.6074 36.6715 22.6074V27.8461C36.6715 27.9197 36.6715 28 36.7857 28H37.0276C37.2953 28 37.2546 27.9304 37.2546 27.7805L37.245 22.6596C37.245 22.6596 37.2464 22.313 37.2464 22.3451C37.2464 22.3772 42.2054 25.4529 42.2054 25.4529C42.2054 25.4529 47.1644 22.3772 47.1644 22.3451C47.1644 22.3116 47.1657 22.6596 47.1657 22.6596L47.1562 27.7805C47.1562 27.929 47.1155 28 47.3832 28H47.6251C47.7392 28 47.7393 27.9197 47.7393 27.8461V22.6074C47.7393 22.6074 47.7393 22.3786 47.7393 21.9181C47.742 21.633 47.4783 21.6504 47.3438 21.6852Z"/>
<path d="M25.8252 21.9543C25.3346 21.7254 24.5682 21.6652 22.0961 21.6652C20.7493 21.6652 16.902 21.6839 16.02 21.7107C15.7944 21.7201 15.7061 21.7803 15.7061 21.9235V27.83C15.7061 27.9009 15.717 27.9505 15.8651 27.9505H16.1219C16.2483 27.9505 16.2945 27.9183 16.2945 27.83V25.6711C16.2945 25.3486 16.4155 25.3325 16.7634 25.3325L23.1344 25.3392L24.9337 27.7176C25.1498 27.9478 25.2014 27.9652 25.5466 27.9652H25.5888C25.6445 27.9652 25.6907 27.9518 25.7151 27.9277C25.7315 27.9117 25.7437 27.8849 25.7179 27.8434L23.8465 25.3365C24.6388 25.3204 25.1158 25.2602 25.4488 25.1491C26.0372 24.9604 26.6651 24.409 26.6651 23.4319C26.6665 22.7185 26.3675 22.1939 25.8252 21.9543ZM25.0261 24.856C24.7149 24.935 24.1849 24.9658 23.1385 24.9658H16.7933C16.3706 24.9658 16.2959 24.9189 16.2959 24.6552V22.2059C16.2959 22.1122 16.3679 22.0694 16.5242 22.0694C17.2431 22.0413 20.9817 22.0333 22.054 22.0333C24.3031 22.0333 25.0166 22.0841 25.3768 22.2688C25.6893 22.4053 26.1595 22.7266 26.1595 23.4841C26.1582 24.1627 25.6649 24.67 25.0261 24.856Z"/>
<path d="M10.1191 21.9543C9.62855 21.7254 8.86207 21.6652 6.39004 21.6652C5.04327 21.6652 1.19592 21.6839 0.31393 21.7107C0.0883353 21.7228 0 21.7816 0 21.9249V27.8314C0 27.9023 0.010872 27.9518 0.159004 27.9518H0.415855C0.542243 27.9518 0.588449 27.9197 0.588449 27.8314V25.6725C0.588449 25.3499 0.7094 25.3338 1.05731 25.3338H7.65935C8.74383 25.3338 9.34859 25.2803 9.7427 25.1478C10.3312 24.9591 10.959 24.4251 10.959 23.448C10.959 22.736 10.6614 22.1939 10.1191 21.9543ZM9.31869 24.8426C9.00748 24.9216 8.47747 24.9524 7.43104 24.9524H1.0872C0.664553 24.9524 0.589808 24.9055 0.589808 24.6419V22.1925C0.589808 22.0989 0.661835 22.056 0.818121 22.056C1.53703 22.0279 5.27566 22.0199 6.34791 22.0199C8.59706 22.0199 9.31054 22.0708 9.67068 22.2555C9.98325 22.392 10.4535 22.7132 10.4535 23.4707C10.4521 24.1493 9.95879 24.6566 9.31869 24.8426Z"/>
</mask>
<path d="M63.8094 27.5329C62.8703 27.5717 59.4755 27.5971 57.5797 27.5971C56.1038 27.5971 54.9391 27.5971 53.9701 27.5877C53.6739 27.5784 53.5135 27.5342 53.5135 27.3308V25.2094C53.5135 25.0099 53.5529 24.9698 53.9973 24.9698H61.5045C61.7709 24.9698 61.9802 24.9698 62.0902 24.9497C62.2112 24.9109 62.3634 24.757 62.3634 24.6927C62.3634 24.6539 62.305 24.599 62.1759 24.599H53.9824C53.5883 24.599 53.5135 24.5923 53.5135 24.3876V22.3023C53.5135 22.1015 53.5991 22.044 53.9131 22.0359C54.314 22.0279 54.8752 22.0239 55.6771 22.0239C56.025 22.0239 56.3742 22.0239 56.6963 22.0252C56.9736 22.0252 57.2318 22.0266 57.4519 22.0266C58.9088 22.0266 62.2941 22.0466 63.3813 22.0587L63.8406 22.064C63.9399 22.064 63.9996 22.0226 63.9996 21.9503C63.9847 21.878 63.804 21.7241 63.6912 21.7027C63.4452 21.6652 59.4021 21.6652 57.4098 21.6652C55.7518 21.6652 54.5545 21.6652 53.3844 21.6839C53.0881 21.6839 52.9115 21.791 52.9115 21.9704V27.5155C52.9115 27.8139 53.0569 27.9411 53.398 27.9411C54.6496 27.9598 55.9353 27.9692 57.5661 27.9692C59.6359 27.9692 63.4207 27.9505 63.668 27.9116C63.7876 27.8728 63.9684 27.7109 63.9847 27.6279L63.9861 27.6239L63.9833 27.6199C63.9698 27.5971 63.9371 27.5329 63.8094 27.5329Z" fill="#FFD501"/>
<path d="M47.3438 21.6852C46.932 21.7923 42.2068 24.8466 42.2068 24.8466C42.2068 24.8466 37.4815 21.791 37.0697 21.6852C36.9352 21.6504 36.6715 21.633 36.6715 21.9181C36.6715 22.3786 36.6715 22.6074 36.6715 22.6074V27.8461C36.6715 27.9197 36.6715 28 36.7857 28H37.0276C37.2953 28 37.2546 27.9304 37.2546 27.7805L37.245 22.6596C37.245 22.6596 37.2464 22.313 37.2464 22.3451C37.2464 22.3772 42.2054 25.4529 42.2054 25.4529C42.2054 25.4529 47.1644 22.3772 47.1644 22.3451C47.1644 22.3116 47.1657 22.6596 47.1657 22.6596L47.1562 27.7805C47.1562 27.929 47.1155 28 47.3832 28H47.6251C47.7392 28 47.7393 27.9197 47.7393 27.8461V22.6074C47.7393 22.6074 47.7393 22.3786 47.7393 21.9181C47.742 21.633 47.4783 21.6504 47.3438 21.6852Z" fill="#FFD501"/>
<path d="M25.8252 21.9543C25.3346 21.7254 24.5682 21.6652 22.0961 21.6652C20.7493 21.6652 16.902 21.6839 16.02 21.7107C15.7944 21.7201 15.7061 21.7803 15.7061 21.9235V27.83C15.7061 27.9009 15.717 27.9505 15.8651 27.9505H16.1219C16.2483 27.9505 16.2945 27.9183 16.2945 27.83V25.6711C16.2945 25.3486 16.4155 25.3325 16.7634 25.3325L23.1344 25.3392L24.9337 27.7176C25.1498 27.9478 25.2014 27.9652 25.5466 27.9652H25.5888C25.6445 27.9652 25.6907 27.9518 25.7151 27.9277C25.7315 27.9117 25.7437 27.8849 25.7179 27.8434L23.8465 25.3365C24.6388 25.3204 25.1158 25.2602 25.4488 25.1491C26.0372 24.9604 26.6651 24.409 26.6651 23.4319C26.6665 22.7185 26.3675 22.1939 25.8252 21.9543ZM25.0261 24.856C24.7149 24.935 24.1849 24.9658 23.1385 24.9658H16.7933C16.3706 24.9658 16.2959 24.9189 16.2959 24.6552V22.2059C16.2959 22.1122 16.3679 22.0694 16.5242 22.0694C17.2431 22.0413 20.9817 22.0333 22.054 22.0333C24.3031 22.0333 25.0166 22.0841 25.3768 22.2688C25.6893 22.4053 26.1595 22.7266 26.1595 23.4841C26.1582 24.1627 25.6649 24.67 25.0261 24.856Z" fill="#FFD501"/>
<path d="M10.1191 21.9543C9.62855 21.7254 8.86207 21.6652 6.39004 21.6652C5.04327 21.6652 1.19592 21.6839 0.31393 21.7107C0.0883353 21.7228 0 21.7816 0 21.9249V27.8314C0 27.9023 0.010872 27.9518 0.159004 27.9518H0.415855C0.542243 27.9518 0.588449 27.9197 0.588449 27.8314V25.6725C0.588449 25.3499 0.7094 25.3338 1.05731 25.3338H7.65935C8.74383 25.3338 9.34859 25.2803 9.7427 25.1478C10.3312 24.9591 10.959 24.4251 10.959 23.448C10.959 22.736 10.6614 22.1939 10.1191 21.9543ZM9.31869 24.8426C9.00748 24.9216 8.47747 24.9524 7.43104 24.9524H1.0872C0.664553 24.9524 0.589808 24.9055 0.589808 24.6419V22.1925C0.589808 22.0989 0.661835 22.056 0.818121 22.056C1.53703 22.0279 5.27566 22.0199 6.34791 22.0199C8.59706 22.0199 9.31054 22.0708 9.67068 22.2555C9.98325 22.392 10.4535 22.7132 10.4535 23.4707C10.4521 24.1493 9.95879 24.6566 9.31869 24.8426Z" fill="#FFD501"/>
<path d="M63.8094 27.5329C62.8703 27.5717 59.4755 27.5971 57.5797 27.5971C56.1038 27.5971 54.9391 27.5971 53.9701 27.5877C53.6739 27.5784 53.5135 27.5342 53.5135 27.3308V25.2094C53.5135 25.0099 53.5529 24.9698 53.9973 24.9698H61.5045C61.7709 24.9698 61.9802 24.9698 62.0902 24.9497C62.2112 24.9109 62.3634 24.757 62.3634 24.6927C62.3634 24.6539 62.305 24.599 62.1759 24.599H53.9824C53.5883 24.599 53.5135 24.5923 53.5135 24.3876V22.3023C53.5135 22.1015 53.5991 22.044 53.9131 22.0359C54.314 22.0279 54.8752 22.0239 55.6771 22.0239C56.025 22.0239 56.3742 22.0239 56.6963 22.0252C56.9736 22.0252 57.2318 22.0266 57.4519 22.0266C58.9088 22.0266 62.2941 22.0466 63.3813 22.0587L63.8406 22.064C63.9399 22.064 63.9996 22.0226 63.9996 21.9503C63.9847 21.878 63.804 21.7241 63.6912 21.7027C63.4452 21.6652 59.4021 21.6652 57.4098 21.6652C55.7518 21.6652 54.5545 21.6652 53.3844 21.6839C53.0881 21.6839 52.9115 21.791 52.9115 21.9704V27.5155C52.9115 27.8139 53.0569 27.9411 53.398 27.9411C54.6496 27.9598 55.9353 27.9692 57.5661 27.9692C59.6359 27.9692 63.4207 27.9505 63.668 27.9116C63.7876 27.8728 63.9684 27.7109 63.9847 27.6279L63.9861 27.6239L63.9833 27.6199C63.9698 27.5971 63.9371 27.5329 63.8094 27.5329Z" stroke="#FFD501" stroke-width="0.6" mask="url(#path-5-outside-1_1_878)"/>
<path d="M47.3438 21.6852C46.932 21.7923 42.2068 24.8466 42.2068 24.8466C42.2068 24.8466 37.4815 21.791 37.0697 21.6852C36.9352 21.6504 36.6715 21.633 36.6715 21.9181C36.6715 22.3786 36.6715 22.6074 36.6715 22.6074V27.8461C36.6715 27.9197 36.6715 28 36.7857 28H37.0276C37.2953 28 37.2546 27.9304 37.2546 27.7805L37.245 22.6596C37.245 22.6596 37.2464 22.313 37.2464 22.3451C37.2464 22.3772 42.2054 25.4529 42.2054 25.4529C42.2054 25.4529 47.1644 22.3772 47.1644 22.3451C47.1644 22.3116 47.1657 22.6596 47.1657 22.6596L47.1562 27.7805C47.1562 27.929 47.1155 28 47.3832 28H47.6251C47.7392 28 47.7393 27.9197 47.7393 27.8461V22.6074C47.7393 22.6074 47.7393 22.3786 47.7393 21.9181C47.742 21.633 47.4783 21.6504 47.3438 21.6852Z" stroke="#FFD501" stroke-width="0.6" mask="url(#path-5-outside-1_1_878)"/>
<path d="M25.8252 21.9543C25.3346 21.7254 24.5682 21.6652 22.0961 21.6652C20.7493 21.6652 16.902 21.6839 16.02 21.7107C15.7944 21.7201 15.7061 21.7803 15.7061 21.9235V27.83C15.7061 27.9009 15.717 27.9505 15.8651 27.9505H16.1219C16.2483 27.9505 16.2945 27.9183 16.2945 27.83V25.6711C16.2945 25.3486 16.4155 25.3325 16.7634 25.3325L23.1344 25.3392L24.9337 27.7176C25.1498 27.9478 25.2014 27.9652 25.5466 27.9652H25.5888C25.6445 27.9652 25.6907 27.9518 25.7151 27.9277C25.7315 27.9117 25.7437 27.8849 25.7179 27.8434L23.8465 25.3365C24.6388 25.3204 25.1158 25.2602 25.4488 25.1491C26.0372 24.9604 26.6651 24.409 26.6651 23.4319C26.6665 22.7185 26.3675 22.1939 25.8252 21.9543ZM25.0261 24.856C24.7149 24.935 24.1849 24.9658 23.1385 24.9658H16.7933C16.3706 24.9658 16.2959 24.9189 16.2959 24.6552V22.2059C16.2959 22.1122 16.3679 22.0694 16.5242 22.0694C17.2431 22.0413 20.9817 22.0333 22.054 22.0333C24.3031 22.0333 25.0166 22.0841 25.3768 22.2688C25.6893 22.4053 26.1595 22.7266 26.1595 23.4841C26.1582 24.1627 25.6649 24.67 25.0261 24.856Z" stroke="#FFD501" stroke-width="0.6" mask="url(#path-5-outside-1_1_878)"/>
<path d="M10.1191 21.9543C9.62855 21.7254 8.86207 21.6652 6.39004 21.6652C5.04327 21.6652 1.19592 21.6839 0.31393 21.7107C0.0883353 21.7228 0 21.7816 0 21.9249V27.8314C0 27.9023 0.010872 27.9518 0.159004 27.9518H0.415855C0.542243 27.9518 0.588449 27.9197 0.588449 27.8314V25.6725C0.588449 25.3499 0.7094 25.3338 1.05731 25.3338H7.65935C8.74383 25.3338 9.34859 25.2803 9.7427 25.1478C10.3312 24.9591 10.959 24.4251 10.959 23.448C10.959 22.736 10.6614 22.1939 10.1191 21.9543ZM9.31869 24.8426C9.00748 24.9216 8.47747 24.9524 7.43104 24.9524H1.0872C0.664553 24.9524 0.589808 24.9055 0.589808 24.6419V22.1925C0.589808 22.0989 0.661835 22.056 0.818121 22.056C1.53703 22.0279 5.27566 22.0199 6.34791 22.0199C8.59706 22.0199 9.31054 22.0708 9.67068 22.2555C9.98325 22.392 10.4535 22.7132 10.4535 23.4707C10.4521 24.1493 9.95879 24.6566 9.31869 24.8426Z" stroke="#FFD501" stroke-width="0.6" mask="url(#path-5-outside-1_1_878)"/>
</g>
<defs>
<clipPath id="clip0_1_878">
<rect width="64" height="28" fill="white"/>
</clipPath>
</defs>
</svg>
